<svg version="1" xmlns="http://www.w3.org/2000/svg" width="666.667" height="666.667" viewBox="0 0 500.000000 500.000000"><path d="M75.2 403.7l.3 58.8h347l.3-58.8.2-58.7H75l.2 58.7zM190 364v5h-10v-10h10v5zm-57.5 3.9c4.5 2 8.8 7.3 10 12.2.5 2.2.2 2.7-1.7 3.3-5.3 1.4-7.4.7-9.1-2.9-2.1-4.4-5.3-6.4-11.3-7.1-10.4-1.3-17.4 3.1-17.4 10.8 0 5 3.9 9.2 10.1 10.8 25.6 6.6 31.9 11.3 31.9 23.9 0 6.6-1.8 10.8-6.3 14.8-5.2 4.5-9.8 5.8-21.2 5.8-8.7 0-10.7-.3-15.6-2.6-5.9-2.8-9.8-7.1-11.7-12.6-1.2-3.5-1.2-3.4 5.5-4.8 2.9-.6 3.4-.4 4.4 2.2 1.5 4 3.8 6.3 8.4 8.4 5.7 2.6 14 2.5 19.5-.4 5-2.5 7-5.5 7-10.7 0-7.1-4-9.9-20.8-14.5-15.8-4.3-21.2-9.3-21.2-19.9 0-10.1 5.5-16.3 16.3-18.6 6.1-1.3 18.2-.3 23.2 1.9zm57.5 37.6V431h21.1l-.3 3.7-.3 3.8h-52l-.3-3.8-.3-3.7H181l-.2-21.3-.3-21.2-8.2-.3-8.3-.3v-3.3c0-1.8.3-3.6.7-3.9.3-.4 6.2-.7 13-.7H190v25.5zm58.1-22.6c1.6 1.6 2.9 3.7 2.9 4.5 0 2.3 1.7 2 2.5-.4 1.8-5.8 10.4-8.7 16.4-5.5 5.4 2.7 6.1 6.8 6.1 33.5v24h-9v-22.4c0-12.4-.4-23.6-1-25-1.2-3.4-4.4-5-7-3.6-4 2.2-4.5 4.7-5 28l-.5 22.5h-9L244 415c-.3-12.9-.9-24.2-1.3-25.2-1.3-2.5-4.4-2.8-7.1-.7-3.7 2.9-4.6 9-4.6 30.3V439h-9v-58.1l3.8.3c3.4.3 3.7.6 4.2 3.7l.5 3.4 1.5-2.7c3.2-6.1 11.3-7.4 16.1-2.7zm75.7-1.7c6.4 1.6 12.6 7.9 14.6 14.9 2.3 7.7 2.1 21.5-.4 28.2-3.7 9.9-12.6 15.7-24 15.7-10.9 0-19.2-5.7-23-15.8-1.9-4.8-2.1-7.3-1.8-16.2.3-9.3.7-11.1 3.3-15.8 1.6-3 4.1-6.2 5.7-7.3 6.5-4.6 16.3-6.1 25.6-3.7zm71.9 1.4c6.8 5.1 6.8 5.1 7.1 32l.3 24.4H394v-19.3c0-10.5-.5-21-1-23.1-1.4-6.1-4.7-8.8-10.9-8.9-6.3-.1-9.7 2.1-12.8 8.3-2.2 4.1-2.3 5.7-2.3 23.7V439h-10v-58h9v4c0 2.2.3 4 .8 4 .4 0 2.2-1.6 4.1-3.5 4.2-4.3 7.8-5.5 15.8-5.2 4.4.2 7.1.9 9 2.3z"/><path d="M308 388.8c-4.7 2.3-7.7 7.2-8.6 13.9-1 8 .2 18.9 2.4 22.6 6 10.3 19.5 10.1 25.7-.4 1.7-2.9 2-5.2 2-14.9 0-9.9-.3-12.1-2.2-15.6-3.7-6.9-12-9.3-19.3-5.6z"/></svg>